{
    "asset" : {
        "generator" : "Khronos glTF Blender I/O v1.8.19",
        "version" : "2.0"
    },
    "scene" : 0,
    "scenes" : [
        {
            "name" : "Scene",
            "nodes" : [
                0,
                1
            ]
        }
    ],
    "nodes" : [
        {
            "mesh" : 0,
            "name" : "Donut"
        },
        {
            "mesh" : 1,
            "name" : "Icing"
        }
    ],
    "materials" : [
        {
            "doubleSided" : true,
            "name" : "Material.002",
            "pbrMetallicRoughness" : {
                "baseColorFactor" : [
                    0.8000000715255737,
                    0.3855200707912445,
                    0.18150004744529724,
                    1
                ],
                "metallicFactor" : 0,
                "roughnessFactor" : 0.5
            }
        },
        {
            "doubleSided" : true,
            "name" : "Material.001",
            "pbrMetallicRoughness" : {
                "baseColorFactor" : [
                    0.8000000715255737,
                    0.17807233333587646,
                    0.6803411245346069,
                    1
                ],
                "metallicFactor" : 0,
                "roughnessFactor" : 0.24803148210048676
            }
        }
    ],
    "meshes" : [
        {
            "name" : "Torus",
            "primitives" : [
                {
                    "attributes" : {
                        "POSITION" : 0,
                        "NORMAL" : 1,
                        "TEXCOORD_0" : 2
                    },
                    "indices" : 3,
                    "material" : 0
                }
            ]
        },
        {
            "name" : "Torus.001",
            "primitives" : [
                {
                    "attributes" : {
                        "POSITION" : 4,
                        "NORMAL" : 5,
                        "TEXCOORD_0" : 6
                    },
                    "indices" : 7,
                    "material" : 1
                }
            ]
        }
    ],
    "accessors" : [
        {
            "bufferView" : 0,
            "componentType" : 5126,
            "count" : 697,
            "max" : [
                0.04593072086572647,
                0.021821094676852226,
                0.05358772352337837
            ],
            "min" : [
                -0.05323566123843193,
                -0.01824202947318554,
                -0.04632753133773804
            ],
            "type" : "VEC3"
        },
        {
            "bufferView" : 1,
            "componentType" : 5126,
            "count" : 697,
            "type" : "VEC3"
        },
        {
            "bufferView" : 2,
            "componentType" : 5126,
            "count" : 697,
            "type" : "VEC2"
        },
        {
            "bufferView" : 3,
            "componentType" : 5123,
            "count" : 3840,
            "type" : "SCALAR"
        },
        {
            "bufferView" : 4,
            "componentType" : 5126,
            "count" : 362,
            "max" : [
                0.045156463980674744,
                0.021821094676852226,
                0.052857354283332825
            ],
            "min" : [
                -0.0524587482213974,
                -0.00014756619930267334,
                -0.04557012766599655
            ],
            "type" : "VEC3"
        },
        {
            "bufferView" : 5,
            "componentType" : 5126,
            "count" : 362,
            "type" : "VEC3"
        },
        {
            "bufferView" : 6,
            "componentType" : 5126,
            "count" : 362,
            "type" : "VEC2"
        },
        {
            "bufferView" : 7,
            "componentType" : 5123,
            "count" : 1872,
            "type" : "SCALAR"
        }
    ],
    "bufferViews" : [
        {
            "buffer" : 0,
            "byteLength" : 8364,
            "byteOffset" : 0
        },
        {
            "buffer" : 0,
            "byteLength" : 8364,
            "byteOffset" : 8364
        },
        {
            "buffer" : 0,
            "byteLength" : 5576,
            "byteOffset" : 16728
        },
        {
            "buffer" : 0,
            "byteLength" : 7680,
            "byteOffset" : 22304
        },
        {
            "buffer" : 0,
            "byteLength" : 4344,
            "byteOffset" : 29984
        },
        {
            "buffer" : 0,
            "byteLength" : 4344,
            "byteOffset" : 34328
        },
        {
            "buffer" : 0,
            "byteLength" : 2896,
            "byteOffset" : 38672
        },
        {
            "buffer" : 0,
            "byteLength" : 3744,
            "byteOffset" : 41568
        }
    ],
    "buffers" : [
        {
            "byteLength" : 45312,
            "uri" : "data:application/octet-stream;base64,"
        }
    ]
}
